<mxfile host="app.diagrams.net" agent="Mozilla/5.0 (Windows NT 10.0; Win64; x64) AppleWebKit/537.36 (KHTML, like Gecko) Chrome/130.0.0.0 Safari/537.36" version="24.8.6">
  <diagram name="Class and State Machine Diagrams" id="COoNCR2FUt0SskALSmej">
    <mxGraphModel dx="2140" dy="522" grid="1" gridSize="10" guides="1" tooltips="1" connect="1" arrows="1" fold="1" page="1" pageScale="1" pageWidth="850" pageHeight="1100" math="0" shadow="0">
      <root>
        <mxCell id="0" />
        <mxCell id="1" parent="0" />
        <mxCell id="9ao4uA5LlBlGvdcZA7Jr-24" style="edgeStyle=orthogonalEdgeStyle;rounded=0;orthogonalLoop=1;jettySize=auto;html=1;exitX=1;exitY=0.5;exitDx=0;exitDy=0;entryX=0.5;entryY=1;entryDx=0;entryDy=0;" parent="1" edge="1">
          <mxGeometry relative="1" as="geometry">
            <mxPoint x="-80" y="140" as="sourcePoint" />
            <mxPoint x="-365" y="460" as="targetPoint" />
            <Array as="points">
              <mxPoint x="-80" y="150" />
              <mxPoint x="-10" y="150" />
              <mxPoint x="-10" y="530" />
              <mxPoint x="-365" y="530" />
            </Array>
          </mxGeometry>
        </mxCell>
        <mxCell id="K291Se6kIq1R5VFEzdD_-70" value="Pressed t=2s" style="edgeLabel;html=1;align=center;verticalAlign=middle;resizable=0;points=[];" vertex="1" connectable="0" parent="9ao4uA5LlBlGvdcZA7Jr-24">
          <mxGeometry x="-0.1964" y="3" relative="1" as="geometry">
            <mxPoint as="offset" />
          </mxGeometry>
        </mxCell>
        <mxCell id="9ao4uA5LlBlGvdcZA7Jr-35" value="" style="edgeStyle=elbowEdgeStyle;elbow=horizontal;endArrow=classic;html=1;curved=0;rounded=0;endSize=8;startSize=8;entryX=1;entryY=0.5;entryDx=0;entryDy=0;" parent="1" edge="1" target="K291Se6kIq1R5VFEzdD_-61">
          <mxGeometry width="50" height="50" relative="1" as="geometry">
            <mxPoint x="-190" y="290" as="sourcePoint" />
            <mxPoint x="-320.00000000000006" y="268.32000000000005" as="targetPoint" />
            <Array as="points">
              <mxPoint x="-260" y="310" />
              <mxPoint x="-251.44" y="250" />
            </Array>
          </mxGeometry>
        </mxCell>
        <mxCell id="K291Se6kIq1R5VFEzdD_-95" value="Tr. Yellow" style="edgeLabel;html=1;align=center;verticalAlign=middle;resizable=0;points=[];" vertex="1" connectable="0" parent="9ao4uA5LlBlGvdcZA7Jr-35">
          <mxGeometry x="-0.5984" y="-1" relative="1" as="geometry">
            <mxPoint as="offset" />
          </mxGeometry>
        </mxCell>
        <mxCell id="9ao4uA5LlBlGvdcZA7Jr-37" value="" style="edgeStyle=elbowEdgeStyle;elbow=horizontal;endArrow=classic;html=1;curved=0;rounded=0;endSize=8;startSize=8;entryX=1;entryY=0.75;entryDx=0;entryDy=0;" parent="1" edge="1">
          <mxGeometry width="50" height="50" relative="1" as="geometry">
            <mxPoint x="-190" y="483.53" as="sourcePoint" />
            <mxPoint x="-330" y="270.00000000000006" as="targetPoint" />
            <Array as="points">
              <mxPoint x="-280" y="395" />
            </Array>
          </mxGeometry>
        </mxCell>
        <mxCell id="K291Se6kIq1R5VFEzdD_-94" value="Tr. Green" style="edgeLabel;html=1;align=center;verticalAlign=middle;resizable=0;points=[];" vertex="1" connectable="0" parent="9ao4uA5LlBlGvdcZA7Jr-37">
          <mxGeometry x="-0.6768" relative="1" as="geometry">
            <mxPoint as="offset" />
          </mxGeometry>
        </mxCell>
        <mxCell id="9ao4uA5LlBlGvdcZA7Jr-38" style="edgeStyle=orthogonalEdgeStyle;rounded=0;orthogonalLoop=1;jettySize=auto;html=1;entryX=0.936;entryY=0.486;entryDx=0;entryDy=0;entryPerimeter=0;" parent="1" edge="1">
          <mxGeometry relative="1" as="geometry">
            <mxPoint x="-340" y="620" as="sourcePoint" />
            <mxPoint x="-340" y="620" as="targetPoint" />
          </mxGeometry>
        </mxCell>
        <mxCell id="9ao4uA5LlBlGvdcZA7Jr-40" value="" style="edgeStyle=elbowEdgeStyle;elbow=horizontal;endArrow=classic;html=1;curved=0;rounded=0;endSize=8;startSize=8;exitX=1;exitY=0.5;exitDx=0;exitDy=0;" parent="1" edge="1">
          <mxGeometry width="50" height="50" relative="1" as="geometry">
            <mxPoint x="-80" y="460" as="sourcePoint" />
            <mxPoint x="-86" y="163" as="targetPoint" />
            <Array as="points">
              <mxPoint x="-51.6" y="181.8" />
              <mxPoint x="-31.6" y="351.8" />
            </Array>
          </mxGeometry>
        </mxCell>
        <mxCell id="K291Se6kIq1R5VFEzdD_-69" value="Pressed t=2s" style="edgeLabel;html=1;align=center;verticalAlign=middle;resizable=0;points=[];" vertex="1" connectable="0" parent="9ao4uA5LlBlGvdcZA7Jr-40">
          <mxGeometry x="-0.3548" y="-2" relative="1" as="geometry">
            <mxPoint y="1" as="offset" />
          </mxGeometry>
        </mxCell>
        <mxCell id="9ao4uA5LlBlGvdcZA7Jr-41" value="" style="endArrow=classic;html=1;rounded=0;exitX=0.425;exitY=1.062;exitDx=0;exitDy=0;exitPerimeter=0;" parent="1" source="K291Se6kIq1R5VFEzdD_-57" edge="1">
          <mxGeometry width="50" height="50" relative="1" as="geometry">
            <mxPoint x="-140" y="340" as="sourcePoint" />
            <mxPoint x="-139" y="437" as="targetPoint" />
          </mxGeometry>
        </mxCell>
        <mxCell id="K291Se6kIq1R5VFEzdD_-78" value="t=5s" style="edgeLabel;html=1;align=center;verticalAlign=middle;resizable=0;points=[];" vertex="1" connectable="0" parent="9ao4uA5LlBlGvdcZA7Jr-41">
          <mxGeometry x="0.0937" y="-1" relative="1" as="geometry">
            <mxPoint as="offset" />
          </mxGeometry>
        </mxCell>
        <mxCell id="K291Se6kIq1R5VFEzdD_-52" value="" style="endArrow=classic;html=1;rounded=0;entryX=0.5;entryY=0;entryDx=0;entryDy=0;exitX=0.5;exitY=1;exitDx=0;exitDy=0;" edge="1" parent="1">
          <mxGeometry width="50" height="50" relative="1" as="geometry">
            <mxPoint x="-140.42" y="170" as="sourcePoint" />
            <mxPoint x="-140.42" y="260" as="targetPoint" />
          </mxGeometry>
        </mxCell>
        <mxCell id="K291Se6kIq1R5VFEzdD_-77" value="t=20s" style="edgeLabel;html=1;align=center;verticalAlign=middle;resizable=0;points=[];" vertex="1" connectable="0" parent="K291Se6kIq1R5VFEzdD_-52">
          <mxGeometry x="-0.1148" y="2" relative="1" as="geometry">
            <mxPoint as="offset" />
          </mxGeometry>
        </mxCell>
        <mxCell id="K291Se6kIq1R5VFEzdD_-53" value="" style="edgeStyle=elbowEdgeStyle;elbow=vertical;endArrow=classic;html=1;curved=0;rounded=0;endSize=8;startSize=8;exitX=0.663;exitY=-0.059;exitDx=0;exitDy=0;exitPerimeter=0;entryX=0.663;entryY=1.051;entryDx=0;entryDy=0;entryPerimeter=0;" edge="1" parent="1" source="K291Se6kIq1R5VFEzdD_-59" target="K291Se6kIq1R5VFEzdD_-57">
          <mxGeometry width="50" height="50" relative="1" as="geometry">
            <mxPoint x="-110" y="420" as="sourcePoint" />
            <mxPoint x="-110.3846153846157" y="334.7877947567365" as="targetPoint" />
            <Array as="points" />
          </mxGeometry>
        </mxCell>
        <mxCell id="K291Se6kIq1R5VFEzdD_-79" value="t=20s" style="edgeLabel;html=1;align=center;verticalAlign=middle;resizable=0;points=[];" vertex="1" connectable="0" parent="K291Se6kIq1R5VFEzdD_-53">
          <mxGeometry x="-0.2071" relative="1" as="geometry">
            <mxPoint as="offset" />
          </mxGeometry>
        </mxCell>
        <mxCell id="K291Se6kIq1R5VFEzdD_-54" value="" style="edgeStyle=elbowEdgeStyle;elbow=horizontal;endArrow=classic;html=1;curved=0;rounded=0;endSize=8;startSize=8;entryX=0.75;entryY=1;entryDx=0;entryDy=0;entryPerimeter=0;" edge="1" parent="1" target="K291Se6kIq1R5VFEzdD_-56">
          <mxGeometry width="50" height="50" relative="1" as="geometry">
            <mxPoint x="-109.89" y="260" as="sourcePoint" />
            <mxPoint x="-109.89" y="175" as="targetPoint" />
            <Array as="points" />
          </mxGeometry>
        </mxCell>
        <mxCell id="K291Se6kIq1R5VFEzdD_-80" value="t=5s" style="edgeLabel;html=1;align=center;verticalAlign=middle;resizable=0;points=[];" vertex="1" connectable="0" parent="K291Se6kIq1R5VFEzdD_-54">
          <mxGeometry x="-0.0136" y="1" relative="1" as="geometry">
            <mxPoint y="14" as="offset" />
          </mxGeometry>
        </mxCell>
        <mxCell id="K291Se6kIq1R5VFEzdD_-56" value="Red" style="rounded=1;whiteSpace=wrap;html=1;fillColor=#F40101;" vertex="1" parent="1">
          <mxGeometry x="-200" y="110" width="120" height="60" as="geometry" />
        </mxCell>
        <mxCell id="K291Se6kIq1R5VFEzdD_-57" value="Yellow" style="rounded=1;whiteSpace=wrap;html=1;strokeColor=#000000;fillColor=#FFFF00;" vertex="1" parent="1">
          <mxGeometry x="-189.99999999999977" y="260" width="120" height="60" as="geometry" />
        </mxCell>
        <mxCell id="K291Se6kIq1R5VFEzdD_-59" value="Green" style="rounded=1;whiteSpace=wrap;html=1;fillColor=#1ACB10;" vertex="1" parent="1">
          <mxGeometry x="-190" y="440" width="120" height="60" as="geometry" />
        </mxCell>
        <mxCell id="K291Se6kIq1R5VFEzdD_-60" value="Green" style="rounded=1;whiteSpace=wrap;html=1;fillColor=#1ACB10;" vertex="1" parent="1">
          <mxGeometry x="-425" y="400" width="120" height="60" as="geometry" />
        </mxCell>
        <mxCell id="K291Se6kIq1R5VFEzdD_-61" value="Red" style="rounded=1;whiteSpace=wrap;html=1;fillColor=#E90C0C;" vertex="1" parent="1">
          <mxGeometry x="-450" y="220" width="120" height="60" as="geometry" />
        </mxCell>
        <mxCell id="K291Se6kIq1R5VFEzdD_-87" value="" style="endArrow=classic;html=1;rounded=0;entryX=0.216;entryY=1.045;entryDx=0;entryDy=0;entryPerimeter=0;" edge="1" parent="1" target="K291Se6kIq1R5VFEzdD_-60">
          <mxGeometry width="50" height="50" relative="1" as="geometry">
            <mxPoint x="-80" y="130" as="sourcePoint" />
            <mxPoint x="-400" y="470" as="targetPoint" />
            <Array as="points">
              <mxPoint x="50" y="130" />
              <mxPoint x="50" y="560" />
              <mxPoint x="-400" y="560" />
            </Array>
          </mxGeometry>
        </mxCell>
        <mxCell id="K291Se6kIq1R5VFEzdD_-90" value="Tr. Red" style="edgeLabel;html=1;align=center;verticalAlign=middle;resizable=0;points=[];" vertex="1" connectable="0" parent="K291Se6kIq1R5VFEzdD_-87">
          <mxGeometry x="-0.3626" y="-1" relative="1" as="geometry">
            <mxPoint as="offset" />
          </mxGeometry>
        </mxCell>
        <mxCell id="K291Se6kIq1R5VFEzdD_-88" value="" style="group" vertex="1" connectable="0" parent="1">
          <mxGeometry x="210" y="190" width="195" height="350" as="geometry" />
        </mxCell>
        <mxCell id="HN-OwNj--JOzMhWJlklQ-15" value="" style="rounded=0;whiteSpace=wrap;html=1;" parent="K291Se6kIq1R5VFEzdD_-88" vertex="1">
          <mxGeometry width="185" height="330" as="geometry" />
        </mxCell>
        <mxCell id="HN-OwNj--JOzMhWJlklQ-16" value="" style="line;strokeWidth=1;rotatable=0;dashed=0;labelPosition=right;align=left;verticalAlign=middle;spacingTop=0;spacingLeft=6;points=[];portConstraint=eastwest;" parent="K291Se6kIq1R5VFEzdD_-88" vertex="1">
          <mxGeometry x="2.5" y="30" width="180" height="10" as="geometry" />
        </mxCell>
        <mxCell id="HN-OwNj--JOzMhWJlklQ-17" value="&amp;nbsp; &amp;nbsp;Traffic Light System&lt;div&gt;&lt;br&gt;&lt;/div&gt;&lt;div&gt;&lt;br&gt;&lt;/div&gt;&lt;div&gt;-redLed: int&lt;/div&gt;&lt;div&gt;-yellowLed: int&lt;/div&gt;&lt;div&gt;-greenLed: int&lt;/div&gt;&lt;div&gt;-pedRedLed: int&lt;/div&gt;&lt;div&gt;-pedGreenLed: int&lt;/div&gt;&lt;div&gt;-pedButton: int&lt;/div&gt;&lt;div&gt;-t_red: long&lt;/div&gt;&lt;div&gt;-t_yellow: long&lt;/div&gt;&lt;div&gt;-t_green: long&lt;/div&gt;&lt;div&gt;-t_pedGreen: long&lt;/div&gt;&lt;div&gt;-t_transitionDelay: long&lt;/div&gt;&lt;div&gt;-currenState: int&lt;/div&gt;&lt;div&gt;-previousMillis: long&lt;/div&gt;&lt;div&gt;-pedestrianRequest: bool&lt;/div&gt;&lt;div&gt;-isPedestrainCrossing:bool&lt;/div&gt;&lt;div&gt;&lt;br&gt;&lt;/div&gt;&lt;div&gt;&lt;br&gt;&lt;/div&gt;&lt;div&gt;+setup() :void&lt;/div&gt;&lt;div&gt;+loop():void&lt;/div&gt;" style="text;whiteSpace=wrap;html=1;" parent="K291Se6kIq1R5VFEzdD_-88" vertex="1">
          <mxGeometry x="15" width="180" height="340" as="geometry" />
        </mxCell>
        <mxCell id="HN-OwNj--JOzMhWJlklQ-18" value="" style="line;strokeWidth=1;rotatable=0;dashed=0;labelPosition=right;align=left;verticalAlign=middle;spacingTop=0;spacingLeft=6;points=[];portConstraint=eastwest;" parent="K291Se6kIq1R5VFEzdD_-88" vertex="1">
          <mxGeometry x="2.5" y="220" width="180" height="130" as="geometry" />
        </mxCell>
        <mxCell id="K291Se6kIq1R5VFEzdD_-99" value="" style="group" vertex="1" connectable="0" parent="1">
          <mxGeometry x="-570" y="230" width="80" height="130" as="geometry" />
        </mxCell>
        <mxCell id="K291Se6kIq1R5VFEzdD_-63" value="Push Button" style="shape=delay;whiteSpace=wrap;html=1;fillColor=#333333;" vertex="1" parent="K291Se6kIq1R5VFEzdD_-99">
          <mxGeometry width="80" height="40" as="geometry" />
        </mxCell>
        <mxCell id="K291Se6kIq1R5VFEzdD_-96" value="" style="endArrow=classic;html=1;rounded=0;exitX=0.5;exitY=1;exitDx=0;exitDy=0;" edge="1" parent="K291Se6kIq1R5VFEzdD_-99" source="K291Se6kIq1R5VFEzdD_-63">
          <mxGeometry width="50" height="50" relative="1" as="geometry">
            <mxPoint x="150" y="140" as="sourcePoint" />
            <mxPoint x="40" y="110" as="targetPoint" />
          </mxGeometry>
        </mxCell>
        <mxCell id="K291Se6kIq1R5VFEzdD_-98" value="Pressed" style="text;html=1;align=center;verticalAlign=middle;resizable=0;points=[];autosize=1;strokeColor=none;fillColor=none;" vertex="1" parent="K291Se6kIq1R5VFEzdD_-99">
          <mxGeometry x="5" y="100" width="70" height="30" as="geometry" />
        </mxCell>
      </root>
    </mxGraphModel>
  </diagram>
</mxfile>
